<mxfile host="Electron" modified="2024-01-28T11:17:20.765Z" agent="Mozilla/5.0 (Windows NT 10.0; Win64; x64) AppleWebKit/537.36 (KHTML, like Gecko) draw.io/23.0.2 Chrome/120.0.6099.109 Electron/28.1.0 Safari/537.36" etag="BCiaPrzrmzE_A9Tddhyp" version="23.0.2" type="device">
  <diagram name="Страница — 1" id="AY7A7CpchqMizsbRakQM">
    <mxGraphModel dx="963" dy="835" grid="1" gridSize="10" guides="1" tooltips="1" connect="1" arrows="1" fold="1" page="1" pageScale="1" pageWidth="827" pageHeight="1169" math="0" shadow="0">
      <root>
        <mxCell id="0" />
        <mxCell id="1" parent="0" />
        <mxCell id="jITj9OqM1Bp8Rfe6iKQ9-3" style="edgeStyle=orthogonalEdgeStyle;rounded=0;orthogonalLoop=1;jettySize=auto;html=1;exitX=0.5;exitY=1;exitDx=0;exitDy=0;entryX=0.5;entryY=0;entryDx=0;entryDy=0;" edge="1" parent="1" source="jITj9OqM1Bp8Rfe6iKQ9-1" target="jITj9OqM1Bp8Rfe6iKQ9-2">
          <mxGeometry relative="1" as="geometry" />
        </mxCell>
        <mxCell id="jITj9OqM1Bp8Rfe6iKQ9-1" value="начало&lt;br&gt;KeyDown" style="rounded=1;whiteSpace=wrap;html=1;arcSize=50;" vertex="1" parent="1">
          <mxGeometry x="10" width="100" height="50" as="geometry" />
        </mxCell>
        <mxCell id="jITj9OqM1Bp8Rfe6iKQ9-12" style="edgeStyle=orthogonalEdgeStyle;rounded=0;orthogonalLoop=1;jettySize=auto;html=1;exitX=0.5;exitY=1;exitDx=0;exitDy=0;entryX=0;entryY=0.5;entryDx=0;entryDy=0;" edge="1" parent="1" source="jITj9OqM1Bp8Rfe6iKQ9-2" target="jITj9OqM1Bp8Rfe6iKQ9-4">
          <mxGeometry relative="1" as="geometry" />
        </mxCell>
        <mxCell id="jITj9OqM1Bp8Rfe6iKQ9-13" style="edgeStyle=orthogonalEdgeStyle;rounded=0;orthogonalLoop=1;jettySize=auto;html=1;exitX=0.5;exitY=1;exitDx=0;exitDy=0;entryX=0;entryY=0.5;entryDx=0;entryDy=0;" edge="1" parent="1" source="jITj9OqM1Bp8Rfe6iKQ9-2" target="jITj9OqM1Bp8Rfe6iKQ9-5">
          <mxGeometry relative="1" as="geometry" />
        </mxCell>
        <mxCell id="jITj9OqM1Bp8Rfe6iKQ9-14" style="edgeStyle=orthogonalEdgeStyle;rounded=0;orthogonalLoop=1;jettySize=auto;html=1;exitX=0.5;exitY=1;exitDx=0;exitDy=0;entryX=0;entryY=0.5;entryDx=0;entryDy=0;" edge="1" parent="1" source="jITj9OqM1Bp8Rfe6iKQ9-2" target="jITj9OqM1Bp8Rfe6iKQ9-6">
          <mxGeometry relative="1" as="geometry" />
        </mxCell>
        <mxCell id="jITj9OqM1Bp8Rfe6iKQ9-15" style="edgeStyle=orthogonalEdgeStyle;rounded=0;orthogonalLoop=1;jettySize=auto;html=1;exitX=0.5;exitY=1;exitDx=0;exitDy=0;entryX=0;entryY=0.5;entryDx=0;entryDy=0;" edge="1" parent="1" source="jITj9OqM1Bp8Rfe6iKQ9-2" target="jITj9OqM1Bp8Rfe6iKQ9-7">
          <mxGeometry relative="1" as="geometry" />
        </mxCell>
        <mxCell id="jITj9OqM1Bp8Rfe6iKQ9-16" style="edgeStyle=orthogonalEdgeStyle;rounded=0;orthogonalLoop=1;jettySize=auto;html=1;exitX=0.5;exitY=1;exitDx=0;exitDy=0;entryX=0;entryY=0.5;entryDx=0;entryDy=0;" edge="1" parent="1" source="jITj9OqM1Bp8Rfe6iKQ9-2" target="jITj9OqM1Bp8Rfe6iKQ9-8">
          <mxGeometry relative="1" as="geometry" />
        </mxCell>
        <mxCell id="jITj9OqM1Bp8Rfe6iKQ9-17" style="edgeStyle=orthogonalEdgeStyle;rounded=0;orthogonalLoop=1;jettySize=auto;html=1;exitX=0.5;exitY=1;exitDx=0;exitDy=0;entryX=0;entryY=0.5;entryDx=0;entryDy=0;" edge="1" parent="1" source="jITj9OqM1Bp8Rfe6iKQ9-2" target="jITj9OqM1Bp8Rfe6iKQ9-9">
          <mxGeometry relative="1" as="geometry" />
        </mxCell>
        <mxCell id="jITj9OqM1Bp8Rfe6iKQ9-18" style="edgeStyle=orthogonalEdgeStyle;rounded=0;orthogonalLoop=1;jettySize=auto;html=1;exitX=0.5;exitY=1;exitDx=0;exitDy=0;entryX=0;entryY=0.5;entryDx=0;entryDy=0;" edge="1" parent="1" source="jITj9OqM1Bp8Rfe6iKQ9-2" target="jITj9OqM1Bp8Rfe6iKQ9-10">
          <mxGeometry relative="1" as="geometry" />
        </mxCell>
        <mxCell id="jITj9OqM1Bp8Rfe6iKQ9-19" style="edgeStyle=orthogonalEdgeStyle;rounded=0;orthogonalLoop=1;jettySize=auto;html=1;exitX=0.5;exitY=1;exitDx=0;exitDy=0;entryX=0;entryY=0.5;entryDx=0;entryDy=0;" edge="1" parent="1" source="jITj9OqM1Bp8Rfe6iKQ9-2" target="jITj9OqM1Bp8Rfe6iKQ9-11">
          <mxGeometry relative="1" as="geometry" />
        </mxCell>
        <mxCell id="jITj9OqM1Bp8Rfe6iKQ9-59" style="edgeStyle=orthogonalEdgeStyle;rounded=0;orthogonalLoop=1;jettySize=auto;html=1;exitX=0.5;exitY=1;exitDx=0;exitDy=0;entryX=0.5;entryY=0;entryDx=0;entryDy=0;" edge="1" parent="1" source="jITj9OqM1Bp8Rfe6iKQ9-2" target="jITj9OqM1Bp8Rfe6iKQ9-20">
          <mxGeometry relative="1" as="geometry">
            <Array as="points">
              <mxPoint x="60" y="780" />
              <mxPoint x="280" y="780" />
              <mxPoint x="280" y="150" />
              <mxPoint x="350" y="150" />
            </Array>
          </mxGeometry>
        </mxCell>
        <mxCell id="jITj9OqM1Bp8Rfe6iKQ9-2" value="Оператор выбора&lt;br&gt;key" style="rhombus;whiteSpace=wrap;html=1;" vertex="1" parent="1">
          <mxGeometry x="10" y="80" width="100" height="70" as="geometry" />
        </mxCell>
        <mxCell id="jITj9OqM1Bp8Rfe6iKQ9-60" style="edgeStyle=orthogonalEdgeStyle;rounded=0;orthogonalLoop=1;jettySize=auto;html=1;exitX=1;exitY=0.5;exitDx=0;exitDy=0;" edge="1" parent="1" source="jITj9OqM1Bp8Rfe6iKQ9-4">
          <mxGeometry relative="1" as="geometry">
            <mxPoint x="280" y="175" as="targetPoint" />
          </mxGeometry>
        </mxCell>
        <mxCell id="jITj9OqM1Bp8Rfe6iKQ9-4" value="y = y - 5" style="rounded=0;whiteSpace=wrap;html=1;" vertex="1" parent="1">
          <mxGeometry x="130" y="150" width="100" height="50" as="geometry" />
        </mxCell>
        <mxCell id="jITj9OqM1Bp8Rfe6iKQ9-33" style="edgeStyle=orthogonalEdgeStyle;rounded=0;orthogonalLoop=1;jettySize=auto;html=1;exitX=1;exitY=0.5;exitDx=0;exitDy=0;" edge="1" parent="1" source="jITj9OqM1Bp8Rfe6iKQ9-5">
          <mxGeometry relative="1" as="geometry">
            <mxPoint x="280" y="255" as="targetPoint" />
          </mxGeometry>
        </mxCell>
        <mxCell id="jITj9OqM1Bp8Rfe6iKQ9-5" value="y = y + 5" style="rounded=0;whiteSpace=wrap;html=1;" vertex="1" parent="1">
          <mxGeometry x="130" y="230" width="100" height="50" as="geometry" />
        </mxCell>
        <mxCell id="jITj9OqM1Bp8Rfe6iKQ9-34" style="edgeStyle=orthogonalEdgeStyle;rounded=0;orthogonalLoop=1;jettySize=auto;html=1;exitX=1;exitY=0.5;exitDx=0;exitDy=0;" edge="1" parent="1" source="jITj9OqM1Bp8Rfe6iKQ9-6">
          <mxGeometry relative="1" as="geometry">
            <mxPoint x="280" y="335" as="targetPoint" />
          </mxGeometry>
        </mxCell>
        <mxCell id="jITj9OqM1Bp8Rfe6iKQ9-6" value="x = x - 5" style="rounded=0;whiteSpace=wrap;html=1;" vertex="1" parent="1">
          <mxGeometry x="130" y="310" width="100" height="50" as="geometry" />
        </mxCell>
        <mxCell id="jITj9OqM1Bp8Rfe6iKQ9-35" style="edgeStyle=orthogonalEdgeStyle;rounded=0;orthogonalLoop=1;jettySize=auto;html=1;exitX=1;exitY=0.5;exitDx=0;exitDy=0;" edge="1" parent="1" source="jITj9OqM1Bp8Rfe6iKQ9-7">
          <mxGeometry relative="1" as="geometry">
            <mxPoint x="280" y="415" as="targetPoint" />
          </mxGeometry>
        </mxCell>
        <mxCell id="jITj9OqM1Bp8Rfe6iKQ9-7" value="x = x + 5" style="rounded=0;whiteSpace=wrap;html=1;" vertex="1" parent="1">
          <mxGeometry x="130" y="390" width="100" height="50" as="geometry" />
        </mxCell>
        <mxCell id="jITj9OqM1Bp8Rfe6iKQ9-37" style="edgeStyle=orthogonalEdgeStyle;rounded=0;orthogonalLoop=1;jettySize=auto;html=1;exitX=1;exitY=0.5;exitDx=0;exitDy=0;" edge="1" parent="1" source="jITj9OqM1Bp8Rfe6iKQ9-8">
          <mxGeometry relative="1" as="geometry">
            <mxPoint x="280" y="495" as="targetPoint" />
          </mxGeometry>
        </mxCell>
        <mxCell id="jITj9OqM1Bp8Rfe6iKQ9-8" value="t = t - 5" style="rounded=0;whiteSpace=wrap;html=1;" vertex="1" parent="1">
          <mxGeometry x="130" y="470" width="100" height="50" as="geometry" />
        </mxCell>
        <mxCell id="jITj9OqM1Bp8Rfe6iKQ9-38" style="edgeStyle=orthogonalEdgeStyle;rounded=0;orthogonalLoop=1;jettySize=auto;html=1;exitX=1;exitY=0.5;exitDx=0;exitDy=0;" edge="1" parent="1" source="jITj9OqM1Bp8Rfe6iKQ9-9">
          <mxGeometry relative="1" as="geometry">
            <mxPoint x="280" y="575" as="targetPoint" />
          </mxGeometry>
        </mxCell>
        <mxCell id="jITj9OqM1Bp8Rfe6iKQ9-9" value="t = t + 5" style="rounded=0;whiteSpace=wrap;html=1;" vertex="1" parent="1">
          <mxGeometry x="130" y="550" width="100" height="50" as="geometry" />
        </mxCell>
        <mxCell id="jITj9OqM1Bp8Rfe6iKQ9-39" style="edgeStyle=orthogonalEdgeStyle;rounded=0;orthogonalLoop=1;jettySize=auto;html=1;exitX=1;exitY=0.5;exitDx=0;exitDy=0;" edge="1" parent="1" source="jITj9OqM1Bp8Rfe6iKQ9-10">
          <mxGeometry relative="1" as="geometry">
            <mxPoint x="280" y="655" as="targetPoint" />
          </mxGeometry>
        </mxCell>
        <mxCell id="jITj9OqM1Bp8Rfe6iKQ9-10" value="n = n - 1" style="rounded=0;whiteSpace=wrap;html=1;" vertex="1" parent="1">
          <mxGeometry x="130" y="630" width="100" height="50" as="geometry" />
        </mxCell>
        <mxCell id="jITj9OqM1Bp8Rfe6iKQ9-40" style="edgeStyle=orthogonalEdgeStyle;rounded=0;orthogonalLoop=1;jettySize=auto;html=1;exitX=1;exitY=0.5;exitDx=0;exitDy=0;" edge="1" parent="1" source="jITj9OqM1Bp8Rfe6iKQ9-11">
          <mxGeometry relative="1" as="geometry">
            <mxPoint x="280" y="735" as="targetPoint" />
          </mxGeometry>
        </mxCell>
        <mxCell id="jITj9OqM1Bp8Rfe6iKQ9-11" value="n = n + 1" style="rounded=0;whiteSpace=wrap;html=1;" vertex="1" parent="1">
          <mxGeometry x="130" y="710" width="100" height="50" as="geometry" />
        </mxCell>
        <mxCell id="jITj9OqM1Bp8Rfe6iKQ9-45" style="edgeStyle=orthogonalEdgeStyle;rounded=0;orthogonalLoop=1;jettySize=auto;html=1;exitX=0.5;exitY=1;exitDx=0;exitDy=0;entryX=0.5;entryY=0;entryDx=0;entryDy=0;" edge="1" parent="1" source="jITj9OqM1Bp8Rfe6iKQ9-20" target="jITj9OqM1Bp8Rfe6iKQ9-41">
          <mxGeometry relative="1" as="geometry" />
        </mxCell>
        <mxCell id="jITj9OqM1Bp8Rfe6iKQ9-20" value="очистка &lt;br&gt;экрана" style="shape=parallelogram;perimeter=parallelogramPerimeter;whiteSpace=wrap;html=1;fixedSize=1;" vertex="1" parent="1">
          <mxGeometry x="300" y="210" width="100" height="50" as="geometry" />
        </mxCell>
        <mxCell id="jITj9OqM1Bp8Rfe6iKQ9-23" value="нажатие W" style="text;html=1;strokeColor=none;fillColor=none;align=center;verticalAlign=middle;whiteSpace=wrap;rounded=0;" vertex="1" parent="1">
          <mxGeometry x="60" y="150" width="70" height="30" as="geometry" />
        </mxCell>
        <mxCell id="jITj9OqM1Bp8Rfe6iKQ9-24" value="нажатие S" style="text;html=1;strokeColor=none;fillColor=none;align=center;verticalAlign=middle;whiteSpace=wrap;rounded=0;" vertex="1" parent="1">
          <mxGeometry x="60" y="230" width="70" height="30" as="geometry" />
        </mxCell>
        <mxCell id="jITj9OqM1Bp8Rfe6iKQ9-25" value="нажатие A" style="text;html=1;strokeColor=none;fillColor=none;align=center;verticalAlign=middle;whiteSpace=wrap;rounded=0;" vertex="1" parent="1">
          <mxGeometry x="60" y="310" width="70" height="30" as="geometry" />
        </mxCell>
        <mxCell id="jITj9OqM1Bp8Rfe6iKQ9-26" value="нажатие D" style="text;html=1;strokeColor=none;fillColor=none;align=center;verticalAlign=middle;whiteSpace=wrap;rounded=0;" vertex="1" parent="1">
          <mxGeometry x="60" y="390" width="70" height="30" as="geometry" />
        </mxCell>
        <mxCell id="jITj9OqM1Bp8Rfe6iKQ9-27" value="нажатие Z" style="text;html=1;strokeColor=none;fillColor=none;align=center;verticalAlign=middle;whiteSpace=wrap;rounded=0;" vertex="1" parent="1">
          <mxGeometry x="60" y="470" width="70" height="30" as="geometry" />
        </mxCell>
        <mxCell id="jITj9OqM1Bp8Rfe6iKQ9-28" value="нажатие X" style="text;html=1;strokeColor=none;fillColor=none;align=center;verticalAlign=middle;whiteSpace=wrap;rounded=0;" vertex="1" parent="1">
          <mxGeometry x="60" y="550" width="70" height="30" as="geometry" />
        </mxCell>
        <mxCell id="jITj9OqM1Bp8Rfe6iKQ9-29" value="нажатие E" style="text;html=1;strokeColor=none;fillColor=none;align=center;verticalAlign=middle;whiteSpace=wrap;rounded=0;" vertex="1" parent="1">
          <mxGeometry x="60" y="630" width="70" height="30" as="geometry" />
        </mxCell>
        <mxCell id="jITj9OqM1Bp8Rfe6iKQ9-30" value="нажатие Q" style="text;html=1;strokeColor=none;fillColor=none;align=center;verticalAlign=middle;whiteSpace=wrap;rounded=0;" vertex="1" parent="1">
          <mxGeometry x="60" y="710" width="70" height="30" as="geometry" />
        </mxCell>
        <mxCell id="jITj9OqM1Bp8Rfe6iKQ9-46" style="edgeStyle=orthogonalEdgeStyle;rounded=0;orthogonalLoop=1;jettySize=auto;html=1;exitX=0.5;exitY=1;exitDx=0;exitDy=0;entryX=0.5;entryY=0;entryDx=0;entryDy=0;" edge="1" parent="1" source="jITj9OqM1Bp8Rfe6iKQ9-41" target="jITj9OqM1Bp8Rfe6iKQ9-42">
          <mxGeometry relative="1" as="geometry" />
        </mxCell>
        <mxCell id="jITj9OqM1Bp8Rfe6iKQ9-41" value="step=t" style="rounded=0;whiteSpace=wrap;html=1;" vertex="1" parent="1">
          <mxGeometry x="300" y="280" width="100" height="50" as="geometry" />
        </mxCell>
        <mxCell id="jITj9OqM1Bp8Rfe6iKQ9-48" style="edgeStyle=orthogonalEdgeStyle;rounded=0;orthogonalLoop=1;jettySize=auto;html=1;exitX=1;exitY=0.5;exitDx=0;exitDy=0;entryX=0.5;entryY=0;entryDx=0;entryDy=0;" edge="1" parent="1" source="jITj9OqM1Bp8Rfe6iKQ9-42" target="jITj9OqM1Bp8Rfe6iKQ9-47">
          <mxGeometry relative="1" as="geometry" />
        </mxCell>
        <mxCell id="jITj9OqM1Bp8Rfe6iKQ9-50" style="edgeStyle=orthogonalEdgeStyle;rounded=0;orthogonalLoop=1;jettySize=auto;html=1;exitX=0.5;exitY=1;exitDx=0;exitDy=0;entryX=0.5;entryY=0;entryDx=0;entryDy=0;" edge="1" parent="1" source="jITj9OqM1Bp8Rfe6iKQ9-42" target="jITj9OqM1Bp8Rfe6iKQ9-49">
          <mxGeometry relative="1" as="geometry" />
        </mxCell>
        <mxCell id="jITj9OqM1Bp8Rfe6iKQ9-42" value="step&amp;nbsp;≤ 0" style="rhombus;whiteSpace=wrap;html=1;" vertex="1" parent="1">
          <mxGeometry x="300" y="350" width="100" height="60" as="geometry" />
        </mxCell>
        <mxCell id="jITj9OqM1Bp8Rfe6iKQ9-43" value="да" style="text;html=1;strokeColor=none;fillColor=none;align=center;verticalAlign=middle;whiteSpace=wrap;rounded=0;" vertex="1" parent="1">
          <mxGeometry x="373" y="350" width="60" height="30" as="geometry" />
        </mxCell>
        <mxCell id="jITj9OqM1Bp8Rfe6iKQ9-44" value="нет" style="text;html=1;strokeColor=none;fillColor=none;align=center;verticalAlign=middle;whiteSpace=wrap;rounded=0;" vertex="1" parent="1">
          <mxGeometry x="340" y="400" width="60" height="30" as="geometry" />
        </mxCell>
        <mxCell id="jITj9OqM1Bp8Rfe6iKQ9-51" style="edgeStyle=orthogonalEdgeStyle;rounded=0;orthogonalLoop=1;jettySize=auto;html=1;exitX=0.5;exitY=1;exitDx=0;exitDy=0;" edge="1" parent="1" source="jITj9OqM1Bp8Rfe6iKQ9-47">
          <mxGeometry relative="1" as="geometry">
            <mxPoint x="350" y="470" as="targetPoint" />
            <Array as="points">
              <mxPoint x="450" y="470" />
            </Array>
          </mxGeometry>
        </mxCell>
        <mxCell id="jITj9OqM1Bp8Rfe6iKQ9-47" value="step=1&lt;br&gt;t=0" style="rounded=0;whiteSpace=wrap;html=1;" vertex="1" parent="1">
          <mxGeometry x="400" y="410" width="100" height="50" as="geometry" />
        </mxCell>
        <mxCell id="jITj9OqM1Bp8Rfe6iKQ9-58" style="edgeStyle=orthogonalEdgeStyle;rounded=0;orthogonalLoop=1;jettySize=auto;html=1;exitX=0.5;exitY=1;exitDx=0;exitDy=0;entryX=0.5;entryY=0;entryDx=0;entryDy=0;" edge="1" parent="1" source="jITj9OqM1Bp8Rfe6iKQ9-49" target="jITj9OqM1Bp8Rfe6iKQ9-52">
          <mxGeometry relative="1" as="geometry" />
        </mxCell>
        <mxCell id="jITj9OqM1Bp8Rfe6iKQ9-49" value="разместить курсор по позиции x,y" style="shape=parallelogram;perimeter=parallelogramPerimeter;whiteSpace=wrap;html=1;fixedSize=1;" vertex="1" parent="1">
          <mxGeometry x="300" y="490" width="100" height="50" as="geometry" />
        </mxCell>
        <mxCell id="jITj9OqM1Bp8Rfe6iKQ9-55" style="edgeStyle=orthogonalEdgeStyle;rounded=0;orthogonalLoop=1;jettySize=auto;html=1;exitX=0.5;exitY=1;exitDx=0;exitDy=0;entryX=0.5;entryY=0;entryDx=0;entryDy=0;" edge="1" parent="1" source="jITj9OqM1Bp8Rfe6iKQ9-52" target="jITj9OqM1Bp8Rfe6iKQ9-54">
          <mxGeometry relative="1" as="geometry" />
        </mxCell>
        <mxCell id="jITj9OqM1Bp8Rfe6iKQ9-52" value="Ввод:&lt;br&gt;n, -1" style="shape=parallelogram;perimeter=parallelogramPerimeter;whiteSpace=wrap;html=1;fixedSize=1;" vertex="1" parent="1">
          <mxGeometry x="300" y="560" width="100" height="50" as="geometry" />
        </mxCell>
        <mxCell id="jITj9OqM1Bp8Rfe6iKQ9-57" style="edgeStyle=orthogonalEdgeStyle;rounded=0;orthogonalLoop=1;jettySize=auto;html=1;exitX=0.5;exitY=1;exitDx=0;exitDy=0;entryX=0.5;entryY=0;entryDx=0;entryDy=0;" edge="1" parent="1" source="jITj9OqM1Bp8Rfe6iKQ9-54" target="jITj9OqM1Bp8Rfe6iKQ9-56">
          <mxGeometry relative="1" as="geometry" />
        </mxCell>
        <mxCell id="jITj9OqM1Bp8Rfe6iKQ9-54" value="Fractal" style="shape=process;whiteSpace=wrap;html=1;backgroundOutline=1;" vertex="1" parent="1">
          <mxGeometry x="300" y="630" width="100" height="50" as="geometry" />
        </mxCell>
        <mxCell id="jITj9OqM1Bp8Rfe6iKQ9-62" style="edgeStyle=orthogonalEdgeStyle;rounded=0;orthogonalLoop=1;jettySize=auto;html=1;exitX=0.5;exitY=1;exitDx=0;exitDy=0;entryX=0.5;entryY=0;entryDx=0;entryDy=0;" edge="1" parent="1" source="jITj9OqM1Bp8Rfe6iKQ9-56" target="jITj9OqM1Bp8Rfe6iKQ9-61">
          <mxGeometry relative="1" as="geometry" />
        </mxCell>
        <mxCell id="jITj9OqM1Bp8Rfe6iKQ9-56" value="перерисовать содержимое&lt;br&gt;окна" style="shape=parallelogram;perimeter=parallelogramPerimeter;whiteSpace=wrap;html=1;fixedSize=1;" vertex="1" parent="1">
          <mxGeometry x="300" y="700" width="100" height="60" as="geometry" />
        </mxCell>
        <mxCell id="jITj9OqM1Bp8Rfe6iKQ9-61" value="конец" style="rounded=1;whiteSpace=wrap;html=1;arcSize=50;" vertex="1" parent="1">
          <mxGeometry x="300" y="780" width="100" height="50" as="geometry" />
        </mxCell>
      </root>
    </mxGraphModel>
  </diagram>
</mxfile>
